<svg width="220" height="220" viewBox="0 0 220 220" xmlns="http://www.w3.org/2000/svg" role="img" aria-label="TDB Barbearia Turma do Bairro">
  <defs>
    <linearGradient id="rim" x1="18" y1="18" x2="202" y2="202" gradientUnits="userSpaceOnUse">
      <stop stop-color="#f8f8f8"/>
      <stop offset="0.48" stop-color="#ffffff"/>
      <stop offset="0.5" stop-color="#10131b"/>
      <stop offset="1" stop-color="#02040a"/>
    </linearGradient>
    <filter id="rough">
      <feTurbulence type="fractalNoise" baseFrequency="0.9" numOctaves="2" stitchTiles="stitch"/>
      <feDisplacementMap in="SourceGraphic" scale="0.7"/>
    </filter>
  </defs>
  <circle cx="110" cy="110" r="104" fill="#0b0d13"/>
  <circle cx="110" cy="110" r="98" fill="url(#rim)"/>
  <path d="M17 112c21 13 43 18 68 15 19-2 35-3 51 4 27 11 49 9 67-3v69H17z" fill="#03050b"/>
  <g filter="url(#rough)" fill="#03050b" stroke="#fff" stroke-width="2.2" stroke-linejoin="round">
    <path d="M43 103c8-8 20-7 31-1 6-11 17-15 27-8 8-12 22-11 31 0 11-8 24-7 35 4 6-7 15-8 23-2l-6 13c-10-4-22-2-34 6-18-12-35-14-55-4-18-10-34-9-49 4z"/>
    <circle cx="83" cy="85" r="11"/>
    <circle cx="111" cy="74" r="13"/>
    <circle cx="139" cy="85" r="11"/>
  </g>
  <g>
    <text x="110" y="132" text-anchor="middle" font-family="Impact, Arial Black, sans-serif" font-size="58" fill="#fff" letter-spacing="3">TDB</text>
    <rect x="50" y="140" width="120" height="18" rx="2" fill="#fff"/>
    <text x="110" y="154" text-anchor="middle" font-family="Arial Black, sans-serif" font-size="10" fill="#0b0d13" letter-spacing="1.8">BARBEARIA</text>
    <rect x="42" y="162" width="136" height="22" rx="2" fill="#0b0d13" stroke="#fff" stroke-width="2"/>
    <text x="110" y="178" text-anchor="middle" font-family="Arial Black, sans-serif" font-size="13" fill="#fff" letter-spacing="1">TURMA DO BAIRRO</text>
    <path d="M158 154l28-10-18 18z" fill="#ff3528"/>
  </g>
</svg>
